<?xml version="1.0" standalone="no"?>
<!DOCTYPE svg PUBLIC "-//W3C//DTD SVG 20010904//EN"
 "http://www.w3.org/TR/2001/REC-SVG-20010904/DTD/svg10.dtd">
<svg version="1.0" xmlns="http://www.w3.org/2000/svg"
 width="835.000000pt" height="835.000000pt" viewBox="0 0 835.000000 835.000000"
 preserveAspectRatio="xMidYMid meet">
<metadata>
Created by potrace 1.11, written by Peter Selinger 2001-2013
</metadata>
<g transform="translate(0.000000,835.000000) scale(0.100000,-0.100000)"
fill="#000000" stroke="none">
<path d="M4082 4780 c-4 -3 -7 -77 -7 -165 l0 -160 -75 0 -75 0 -3 -118 -3
-118 58 1 c113 3 100 43 101 -302 0 -167 1 -309 1 -315 1 -10 37 -13 146 -13
l145 0 1 28 c0 15 1 158 2 317 l2 290 65 2 c36 0 71 2 78 2 9 1 12 31 12 114
l0 114 -67 -2 c-38 -1 -73 0 -79 2 -7 3 -11 49 -12 136 0 73 -1 146 -1 162
l-1 30 -141 0 c-77 0 -143 -2 -147 -5z"/>
<path d="M2525 4473 c-136 -20 -235 -64 -308 -137 -90 -92 -128 -194 -123
-335 3 -97 24 -164 69 -231 93 -136 245 -203 446 -196 111 4 120 5 187 29 121
44 220 153 259 285 7 25 20 23 -165 25 l-125 0 -18 -36 c-46 -97 -197 -122
-276 -46 -50 48 -87 142 -59 151 7 2 157 4 333 3 l320 0 5 35 c7 48 -13 156
-41 216 -29 61 -121 153 -183 183 -91 42 -233 66 -321 54z m138 -199 c56 -16
117 -86 117 -131 0 -17 -13 -18 -187 -18 l-188 0 3 24 c14 97 142 160 255 125z"/>
<path d="M3717 4469 c-52 -12 -86 -31 -129 -73 l-37 -36 1 28 c1 73 13 67
-147 67 l-145 1 -1 -36 c0 -19 -1 -214 -2 -433 l-2 -397 148 0 147 0 1 33 c0
17 1 127 2 242 2 228 7 253 65 311 69 68 172 78 232 22 20 -19 20 -19 20 115
0 99 -3 137 -13 145 -18 15 -94 21 -140 11z"/>
<path d="M6290 4465 c-58 -15 -101 -38 -145 -76 l-35 -31 0 49 0 49 -137 -1
c-76 0 -143 -3 -148 -7 -7 -4 -10 -157 -10 -430 l0 -423 148 -3 147 -3 0 231
c0 136 5 249 11 275 13 51 67 119 106 133 59 20 124 -3 151 -53 14 -25 17 -71
19 -300 1 -148 2 -273 2 -277 1 -5 68 -8 150 -8 l149 0 -3 303 c-1 166 -5 311
-8 322 -28 102 -76 178 -138 217 -61 38 -180 54 -259 33z"/>
<path d="M7290 4473 c-49 -6 -135 -25 -145 -33 -5 -5 -12 -8 -15 -7 -18 4
-110 -56 -153 -99 -83 -82 -127 -190 -127 -314 1 -224 138 -389 365 -438 39
-8 231 -9 270 -1 156 34 282 150 325 300 10 34 25 31 -160 31 -153 0 -140 1
-140 -18 0 -27 -37 -71 -76 -89 -104 -49 -217 -3 -259 107 -9 26 -15 53 -12
60 4 11 73 13 336 13 l331 0 1 27 c1 16 2 34 3 41 1 6 -2 37 -7 67 -25 171
-170 309 -362 346 -36 7 -140 11 -175 7z m175 -221 c40 -28 93 -107 81 -120
-4 -3 -90 -7 -191 -7 -204 -1 -199 -2 -166 63 25 48 46 67 100 85 62 20 127
12 176 -21z"/>
<path d="M352 4454 c-166 -43 -299 -167 -339 -316 -3 -13 -7 -63 -9 -113 -4
-135 29 -221 120 -315 180 -185 546 -187 732 -3 134 131 167 331 84 507 -74
156 -246 255 -444 254 -50 0 -115 -6 -144 -14z m243 -237 c24 -14 50 -40 65
-67 22 -39 25 -57 25 -137 0 -85 -2 -94 -30 -134 -40 -56 -85 -79 -158 -79
-136 0 -200 70 -200 220 0 146 66 219 198 219 44 1 71 -5 100 -22z"/>
<path d="M5005 4459 c-151 -31 -300 -157 -344 -291 -65 -199 1 -404 164 -512
87 -59 154 -78 280 -82 126 -4 198 10 285 57 161 86 238 228 228 418 -10 183
-114 318 -295 387 -78 30 -231 41 -318 23z m226 -242 c65 -35 93 -95 93 -201
1 -71 -3 -87 -26 -127 -33 -56 -60 -75 -124 -86 -99 -18 -182 18 -220 94 -14
28 -19 59 -19 123 0 72 4 92 25 128 35 62 89 92 166 92 44 0 73 -6 105 -23z"/>
<path d="M1043 4435 c3 -11 59 -159 124 -330 66 -170 137 -356 159 -412 l39
-103 175 0 176 0 38 103 c58 155 76 200 185 486 56 145 101 267 101 270 0 11
-289 7 -298 -4 -5 -6 -51 -136 -101 -290 -51 -154 -94 -287 -98 -295 -3 -8
-51 122 -107 290 l-102 305 -147 0 c-143 0 -148 -1 -144 -20z"/>
<path d="M8155 3913 c-139 -25 -200 -187 -108 -286 113 -120 309 -37 298 127
-5 80 -57 138 -140 156 -16 3 -39 4 -50 3z"/>
</g>
</svg>
