<?xml version="1.0" encoding="utf-8"?>
<!-- Generator: Adobe Illustrator 24.0.3, SVG Export Plug-In . SVG Version: 6.00 Build 0)  -->
<svg version="1.1" id="Layer_1" xmlns="http://www.w3.org/2000/svg" xmlns:xlink="http://www.w3.org/1999/xlink" x="0px" y="0px"
	 viewBox="0 0 200.3 29.1" style="enable-background:new 0 0 200.3 29.1;" xml:space="preserve">
<style type="text/css">
	.st0{fill:#1DE9B6;}
</style>
<title>logo</title>
<path class="st0" d="M23.6,18.3c0,6.6-5.2,10.8-11.8,10.8S0,24.9,0,18.3C0,11.8,5.4,7.5,11.8,7.5S23.6,11.8,23.6,18.3z M16.6,18.3
	c0-2.6-1.1-5.4-4.8-5.4S7,15.8,7,18.3s1,5.4,4.8,5.4S16.6,21,16.6,18.3z"/>
<path class="st0" d="M41.1,28.6h-8.3L24.9,7.9H32l4.9,14.8l4.9-14.8H49L41.1,28.6z"/>
<path class="st0" d="M73.6,19.1H57.6c0,2.4,1.7,4.9,4.5,4.9c2.5,0,4.1-1.6,4.1-3.1h7.2c-1.2,5.4-5.6,8.2-11.1,8.2
	c-7.1,0-12.1-4.2-12.1-10.8S55.2,7.4,62.2,7.4c6.3,0,11.5,3.8,11.5,10.4C73.7,18.2,73.6,18.7,73.6,19.1z M66.9,15.8
	c-0.3-2.3-2.3-4-4.6-3.9c-4.4,0-4.7,3.9-4.7,3.9H66.9z"/>
<path class="st0" d="M85.2,18.3v10.3h-7V7.9h7v2.5c1.2-1.9,3.3-3,5.5-3c0.7,0,1.4,0.2,2.1,0.5v6.4h-0.1c-0.7-0.8-1.7-1.2-2.8-1.2
	C87.2,13.1,85.2,15.8,85.2,18.3z"/>
<path class="st0" d="M104.9,28.6h-7V13.4h-3.8V7.9h3.8V0h7v7.9h3.8v5.4h-3.8V28.6z"/>
<path class="st0" d="M134.9,18.3c0,6.6-5.2,10.8-11.8,10.8s-11.8-4.1-11.8-10.8c0-6.5,5.4-10.8,11.8-10.8S134.9,11.8,134.9,18.3z
	 M127.9,18.3c0-2.6-1.1-5.4-4.8-5.4s-4.8,2.8-4.8,5.4s1,5.4,4.8,5.4S127.9,21,127.9,18.3z"/>
<path class="st0" d="M160.6,28.6h-7V16.9c0-2.4-0.9-3.8-3.1-3.8s-3.9,2.4-3.9,5.2v10.3h-7V7.9h7v2.5c1.5-1.9,3.9-3,6.3-3
	c5.5,0,7.8,3.8,7.8,9.4V28.6z"/>
<path class="st0" d="M187.9,19.1h-16.1c0,2.4,1.7,4.9,4.5,4.9c2.5,0,4-1.6,4.1-3.1h7.2c-1.2,5.4-5.6,8.2-11.1,8.2
	c-7.1,0-12.1-4.2-12.1-10.8s5.1-10.9,12.1-10.9c6.3,0,11.5,3.8,11.5,10.4C187.9,18.2,187.9,18.7,187.9,19.1z M181.2,15.8
	c-0.3-2.3-2.3-4-4.6-3.9c-4.4,0-4.6,3.9-4.6,3.9H181.2z"/>
<path class="st0" d="M196.2,20.9c2.3,0,4.1,1.8,4.1,4.1s-1.8,4.1-4.1,4.1s-4.1-1.8-4.1-4.1S193.9,20.9,196.2,20.9z"/>
</svg>
